<?plantuml 1.2026.2?><svg xmlns="http://www.w3.org/2000/svg" xmlns:xlink="http://www.w3.org/1999/xlink" contentStyleType="text/css" data-diagram-type="DESCRIPTION" height="1031px" preserveAspectRatio="none" style="width:1932px;height:1031px;background:#FFFFFF;" version="1.1" viewBox="0 0 1932 1031" width="1932px" zoomAndPan="magnify"><defs/><g><!--cluster titpetric--><g class="cluster" data-qualified-name="titpetric" data-source-line="9" id="ent0002"><rect fill="none" height="1018" rx="2.5" ry="2.5" style="stroke:#181818;stroke-width:1;" width="734" x="7" y="7"/><text fill="#000000" font-family="sans-serif" font-size="14" font-weight="bold" lengthAdjust="spacing" textLength="57.4558" x="345.2721" y="23.9659">titpetric</text></g><!--cluster titpetric/tools--><g class="cluster" data-qualified-name="titpetric.tools" data-source-line="27" id="ent0018"><rect fill="none" height="634" rx="2.5" ry="2.5" style="stroke:#181818;stroke-width:1;" width="432" x="1494" y="7"/><text fill="#000000" font-family="sans-serif" font-size="14" font-weight="bold" lengthAdjust="spacing" textLength="97.8736" x="1661.0632" y="23.9659">titpetric/tools</text></g><!--cluster go-bridget--><g class="cluster" data-qualified-name="go-bridget" data-source-line="39" id="ent0028"><rect fill="none" height="122" rx="2.5" ry="2.5" style="stroke:#181818;stroke-width:1;" width="408" x="875" y="7"/><text fill="#000000" font-family="sans-serif" font-size="14" font-weight="bold" lengthAdjust="spacing" textLength="73.5977" x="1042.2011" y="23.9659">go-bridget</text></g><!--entity github_com_titpetric_cli--><g class="entity" data-qualified-name="titpetric.github_com_titpetric_cli" data-source-line="10" id="ent0003"><a href="https://github.com/titpetric/cli" target="_top" title="https://github.com/titpetric/cli" xlink:actuate="onRequest" xlink:href="https://github.com/titpetric/cli" xlink:show="new" xlink:title="https://github.com/titpetric/cli" xlink:type="simple"><rect fill="#F1F1F1" height="68.1358" rx="2.5" ry="2.5" style="stroke:#181818;stroke-width:0.5;" width="336.4769" x="389" y="45"/><rect fill="#F1F1F1" height="10" style="stroke:#181818;stroke-width:0.5;" width="15" x="705.4769" y="50"/><rect fill="#F1F1F1" height="2" style="stroke:#181818;stroke-width:0.5;" width="4" x="703.4769" y="52"/><rect fill="#F1F1F1" height="2" style="stroke:#181818;stroke-width:0.5;" width="4" x="703.4769" y="56"/><text fill="#000000" font-family="sans-serif" font-size="14" font-weight="bold" lengthAdjust="spacing" textLength="15.7359" x="404" y="79.9659">cli</text><text fill="#000000" font-family="sans-serif" font-size="14" lengthAdjust="spacing" textLength="296.4769" x="404" y="99.0339">A minimal CLI command package using pflag</text></a></g><!--entity github_com_titpetric_lessgo--><g class="entity" data-qualified-name="titpetric.github_com_titpetric_lessgo" data-source-line="11" id="ent0004"><a href="https://github.com/titpetric/lessgo" target="_top" title="https://github.com/titpetric/lessgo" xlink:actuate="onRequest" xlink:href="https://github.com/titpetric/lessgo" xlink:show="new" xlink:title="https://github.com/titpetric/lessgo" xlink:type="simple"><rect fill="#F1F1F1" height="68.1358" rx="2.5" ry="2.5" style="stroke:#181818;stroke-width:0.5;" width="236.1393" x="237" y="173"/><rect fill="#F1F1F1" height="10" style="stroke:#181818;stroke-width:0.5;" width="15" x="453.1393" y="178"/><rect fill="#F1F1F1" height="2" style="stroke:#181818;stroke-width:0.5;" width="4" x="451.1393" y="180"/><rect fill="#F1F1F1" height="2" style="stroke:#181818;stroke-width:0.5;" width="4" x="451.1393" y="184"/><text fill="#000000" font-family="sans-serif" font-size="14" font-weight="bold" lengthAdjust="spacing" textLength="43.9879" x="252" y="207.9659">lessgo</text><text fill="#000000" font-family="sans-serif" font-size="14" lengthAdjust="spacing" textLength="196.1393" x="252" y="227.0339">A Go based Less CSS compiler</text></a></g><!--entity github_com_titpetric_platform--><g class="entity" data-qualified-name="titpetric.github_com_titpetric_platform" data-source-line="12" id="ent0005"><a href="https://github.com/titpetric/platform" target="_top" title="https://github.com/titpetric/platform" xlink:actuate="onRequest" xlink:href="https://github.com/titpetric/platform" xlink:show="new" xlink:title="https://github.com/titpetric/platform" xlink:type="simple"><rect fill="#F1F1F1" height="68.1358" rx="2.5" ry="2.5" style="stroke:#181818;stroke-width:0.5;" width="344.5129" x="96.5" y="301"/><rect fill="#F1F1F1" height="10" style="stroke:#181818;stroke-width:0.5;" width="15" x="421.0129" y="306"/><rect fill="#F1F1F1" height="2" style="stroke:#181818;stroke-width:0.5;" width="4" x="419.0129" y="308"/><rect fill="#F1F1F1" height="2" style="stroke:#181818;stroke-width:0.5;" width="4" x="419.0129" y="312"/><text fill="#000000" font-family="sans-serif" font-size="14" font-weight="bold" lengthAdjust="spacing" textLength="61.8518" x="111.5" y="335.9659">platform</text><text fill="#000000" font-family="sans-serif" font-size="14" lengthAdjust="spacing" textLength="304.5129" x="111.5" y="355.0339">A modular system for building Go applications</text></a></g><!--entity github_com_titpetric_vuego--><g class="entity" data-qualified-name="titpetric.github_com_titpetric_vuego" data-source-line="13" id="ent0006"><a href="https://github.com/titpetric/vuego" target="_top" title="https://github.com/titpetric/vuego" xlink:actuate="onRequest" xlink:href="https://github.com/titpetric/vuego" xlink:show="new" xlink:title="https://github.com/titpetric/vuego" xlink:type="simple"><rect fill="#F1F1F1" height="68.1358" rx="2.5" ry="2.5" style="stroke:#181818;stroke-width:0.5;" width="312.7749" x="171.5" y="429"/><rect fill="#F1F1F1" height="10" style="stroke:#181818;stroke-width:0.5;" width="15" x="464.2749" y="434"/><rect fill="#F1F1F1" height="2" style="stroke:#181818;stroke-width:0.5;" width="4" x="462.2749" y="436"/><rect fill="#F1F1F1" height="2" style="stroke:#181818;stroke-width:0.5;" width="4" x="462.2749" y="440"/><text fill="#000000" font-family="sans-serif" font-size="14" font-weight="bold" lengthAdjust="spacing" textLength="44.0998" x="186.5" y="463.9659">Vuego</text><text fill="#000000" font-family="sans-serif" font-size="14" lengthAdjust="spacing" textLength="272.7749" x="186.5" y="483.0339">A Go based VueJS syntax template engine</text></a></g><!--entity github_com_titpetric_vuego_cli--><g class="entity" data-qualified-name="titpetric.github_com_titpetric_vuego_cli" data-source-line="14" id="ent0007"><a href="https://github.com/titpetric/vuego-cli" target="_top" title="https://github.com/titpetric/vuego-cli" xlink:actuate="onRequest" xlink:href="https://github.com/titpetric/vuego-cli" xlink:show="new" xlink:title="https://github.com/titpetric/vuego-cli" xlink:type="simple"><rect fill="#F1F1F1" height="68.1358" rx="2.5" ry="2.5" style="stroke:#181818;stroke-width:0.5;" width="264.9231" x="330.5" y="557"/><rect fill="#F1F1F1" height="10" style="stroke:#181818;stroke-width:0.5;" width="15" x="575.4231" y="562"/><rect fill="#F1F1F1" height="2" style="stroke:#181818;stroke-width:0.5;" width="4" x="573.4231" y="564"/><rect fill="#F1F1F1" height="2" style="stroke:#181818;stroke-width:0.5;" width="4" x="573.4231" y="568"/><text fill="#000000" font-family="sans-serif" font-size="14" font-weight="bold" lengthAdjust="spacing" textLength="63.2098" x="345.5" y="591.9659">vuego-cli</text><text fill="#000000" font-family="sans-serif" font-size="14" lengthAdjust="spacing" textLength="224.9231" x="345.5" y="611.0339">CLI for the vuego template engine</text></a></g><!--entity github_com_titpetric_atkins--><g class="entity" data-qualified-name="titpetric.github_com_titpetric_atkins" data-source-line="15" id="ent0008"><a href="https://github.com/titpetric/atkins" target="_top" title="https://github.com/titpetric/atkins" xlink:actuate="onRequest" xlink:href="https://github.com/titpetric/atkins" xlink:show="new" xlink:title="https://github.com/titpetric/atkins" xlink:type="simple"><rect fill="#F1F1F1" height="68.1358" rx="2.5" ry="2.5" style="stroke:#181818;stroke-width:0.5;" width="404.9785" x="282.5" y="685"/><rect fill="#F1F1F1" height="10" style="stroke:#181818;stroke-width:0.5;" width="15" x="667.4785" y="690"/><rect fill="#F1F1F1" height="2" style="stroke:#181818;stroke-width:0.5;" width="4" x="665.4785" y="692"/><rect fill="#F1F1F1" height="2" style="stroke:#181818;stroke-width:0.5;" width="4" x="665.4785" y="696"/><text fill="#000000" font-family="sans-serif" font-size="14" font-weight="bold" lengthAdjust="spacing" textLength="43.6378" x="297.5" y="719.9659">atkins</text><text fill="#000000" font-family="sans-serif" font-size="14" lengthAdjust="spacing" textLength="364.9785" x="297.5" y="739.0339">A pipeline runner with skills for CI/CD and development</text></a></g><!--entity github_com_titpetric_etl--><g class="entity" data-qualified-name="titpetric.github_com_titpetric_etl" data-source-line="16" id="ent0009"><a href="https://github.com/titpetric/etl" target="_top" title="https://github.com/titpetric/etl" xlink:actuate="onRequest" xlink:href="https://github.com/titpetric/etl" xlink:show="new" xlink:title="https://github.com/titpetric/etl" xlink:type="simple"><rect fill="#F1F1F1" height="68.1358" rx="2.5" ry="2.5" style="stroke:#181818;stroke-width:0.5;" width="370.4687" x="60" y="813"/><rect fill="#F1F1F1" height="10" style="stroke:#181818;stroke-width:0.5;" width="15" x="410.4687" y="818"/><rect fill="#F1F1F1" height="2" style="stroke:#181818;stroke-width:0.5;" width="4" x="408.4687" y="820"/><rect fill="#F1F1F1" height="2" style="stroke:#181818;stroke-width:0.5;" width="4" x="408.4687" y="824"/><text fill="#000000" font-family="sans-serif" font-size="14" font-weight="bold" lengthAdjust="spacing" textLength="23.8559" x="75" y="847.9659">ETL</text><text fill="#000000" font-family="sans-serif" font-size="14" lengthAdjust="spacing" textLength="330.4687" x="75" y="867.0339">SQL-First CLI, API &amp; Web Development Framework</text></a></g><!--entity github_com_titpetric_platform_app--><g class="entity" data-qualified-name="titpetric.github_com_titpetric_platform_app" data-source-line="17" id="ent0010"><a href="https://github.com/titpetric/platform-app" target="_top" title="https://github.com/titpetric/platform-app" xlink:actuate="onRequest" xlink:href="https://github.com/titpetric/platform-app" xlink:show="new" xlink:title="https://github.com/titpetric/platform-app" xlink:type="simple"><rect fill="#F1F1F1" height="68.1358" rx="2.5" ry="2.5" style="stroke:#181818;stroke-width:0.5;" width="285.0971" x="341.5" y="941"/><rect fill="#F1F1F1" height="10" style="stroke:#181818;stroke-width:0.5;" width="15" x="606.5971" y="946"/><rect fill="#F1F1F1" height="2" style="stroke:#181818;stroke-width:0.5;" width="4" x="604.5971" y="948"/><rect fill="#F1F1F1" height="2" style="stroke:#181818;stroke-width:0.5;" width="4" x="604.5971" y="952"/><text fill="#000000" font-family="sans-serif" font-size="14" font-weight="bold" lengthAdjust="spacing" textLength="92.5396" x="356.5" y="975.9659">platform-app</text><text fill="#000000" font-family="sans-serif" font-size="14" lengthAdjust="spacing" textLength="245.0971" x="356.5" y="995.0339">An example platform application tree</text></a></g><!--entity github_com_titpetric_tools_generic--><g class="entity" data-qualified-name="titpetric.tools.github_com_titpetric_tools_generic" data-source-line="28" id="ent0019"><a href="https://github.com/titpetric/tools/tree/main/generic" target="_top" title="https://github.com/titpetric/tools/tree/main/generic" xlink:actuate="onRequest" xlink:href="https://github.com/titpetric/tools/tree/main/generic" xlink:show="new" xlink:title="https://github.com/titpetric/tools/tree/main/generic" xlink:type="simple"><rect fill="#F1F1F1" height="68.1358" rx="2.5" ry="2.5" style="stroke:#181818;stroke-width:0.5;" width="390.9927" x="1514.5" y="45"/><rect fill="#F1F1F1" height="10" style="stroke:#181818;stroke-width:0.5;" width="15" x="1885.4927" y="50"/><rect fill="#F1F1F1" height="2" style="stroke:#181818;stroke-width:0.5;" width="4" x="1883.4927" y="52"/><rect fill="#F1F1F1" height="2" style="stroke:#181818;stroke-width:0.5;" width="4" x="1883.4927" y="56"/><text fill="#000000" font-family="sans-serif" font-size="14" font-weight="bold" lengthAdjust="spacing" textLength="52.4298" x="1529.5" y="79.9659">generic</text><text fill="#000000" font-family="sans-serif" font-size="14" lengthAdjust="spacing" textLength="350.9927" x="1529.5" y="99.0339">Typed utility functions and template rendering for Go</text></a></g><!--entity github_com_titpetric_tools_gofsck--><g class="entity" data-qualified-name="titpetric.tools.github_com_titpetric_tools_gofsck" data-source-line="29" id="ent0020"><a href="https://github.com/titpetric/tools/tree/main/gofsck" target="_top" title="https://github.com/titpetric/tools/tree/main/gofsck" xlink:actuate="onRequest" xlink:href="https://github.com/titpetric/tools/tree/main/gofsck" xlink:show="new" xlink:title="https://github.com/titpetric/tools/tree/main/gofsck" xlink:type="simple"><rect fill="#F1F1F1" height="68.1358" rx="2.5" ry="2.5" style="stroke:#181818;stroke-width:0.5;" width="340.2149" x="1540" y="173"/><rect fill="#F1F1F1" height="10" style="stroke:#181818;stroke-width:0.5;" width="15" x="1860.2149" y="178"/><rect fill="#F1F1F1" height="2" style="stroke:#181818;stroke-width:0.5;" width="4" x="1858.2149" y="180"/><rect fill="#F1F1F1" height="2" style="stroke:#181818;stroke-width:0.5;" width="4" x="1858.2149" y="184"/><text fill="#000000" font-family="sans-serif" font-size="14" font-weight="bold" lengthAdjust="spacing" textLength="45.7798" x="1555" y="207.9659">gofsck</text><text fill="#000000" font-family="sans-serif" font-size="14" lengthAdjust="spacing" textLength="300.2149" x="1555" y="227.0339">A static analysis tool for Go package structure</text></a></g><!--entity github_com_titpetric_tools_puzzle--><g class="entity" data-qualified-name="titpetric.tools.github_com_titpetric_tools_puzzle" data-source-line="30" id="ent0021"><a href="https://github.com/titpetric/tools/tree/main/puzzle" target="_top" title="https://github.com/titpetric/tools/tree/main/puzzle" xlink:actuate="onRequest" xlink:href="https://github.com/titpetric/tools/tree/main/puzzle" xlink:show="new" xlink:title="https://github.com/titpetric/tools/tree/main/puzzle" xlink:type="simple"><rect fill="#F1F1F1" height="68.1358" rx="2.5" ry="2.5" style="stroke:#181818;stroke-width:0.5;" width="400.6386" x="1509.5" y="301"/><rect fill="#F1F1F1" height="10" style="stroke:#181818;stroke-width:0.5;" width="15" x="1890.1386" y="306"/><rect fill="#F1F1F1" height="2" style="stroke:#181818;stroke-width:0.5;" width="4" x="1888.1386" y="308"/><rect fill="#F1F1F1" height="2" style="stroke:#181818;stroke-width:0.5;" width="4" x="1888.1386" y="312"/><text fill="#000000" font-family="sans-serif" font-size="14" font-weight="bold" lengthAdjust="spacing" textLength="44.2678" x="1524.5" y="335.9659">puzzle</text><text fill="#000000" font-family="sans-serif" font-size="14" lengthAdjust="spacing" textLength="360.6386" x="1524.5" y="355.0339">A crossword puzzle generator from Go package names</text></a></g><!--entity github_com_titpetric_tools_semver--><g class="entity" data-qualified-name="titpetric.tools.github_com_titpetric_tools_semver" data-source-line="31" id="ent0022"><a href="https://github.com/titpetric/tools/tree/main/semver" target="_top" title="https://github.com/titpetric/tools/tree/main/semver" xlink:actuate="onRequest" xlink:href="https://github.com/titpetric/tools/tree/main/semver" xlink:show="new" xlink:title="https://github.com/titpetric/tools/tree/main/semver" xlink:type="simple"><rect fill="#F1F1F1" height="68.1358" rx="2.5" ry="2.5" style="stroke:#181818;stroke-width:0.5;" width="286.4971" x="1567" y="429"/><rect fill="#F1F1F1" height="10" style="stroke:#181818;stroke-width:0.5;" width="15" x="1833.4971" y="434"/><rect fill="#F1F1F1" height="2" style="stroke:#181818;stroke-width:0.5;" width="4" x="1831.4971" y="436"/><rect fill="#F1F1F1" height="2" style="stroke:#181818;stroke-width:0.5;" width="4" x="1831.4971" y="440"/><text fill="#000000" font-family="sans-serif" font-size="14" font-weight="bold" lengthAdjust="spacing" textLength="51.5758" x="1582" y="463.9659">semver</text><text fill="#000000" font-family="sans-serif" font-size="14" lengthAdjust="spacing" textLength="246.4971" x="1582" y="483.0339">A semver tag filter for git repositories</text></a></g><!--entity github_com_titpetric_tools_worktree--><g class="entity" data-qualified-name="titpetric.tools.github_com_titpetric_tools_worktree" data-source-line="32" id="ent0023"><a href="https://github.com/titpetric/tools/tree/main/worktree" target="_top" title="https://github.com/titpetric/tools/tree/main/worktree" xlink:actuate="onRequest" xlink:href="https://github.com/titpetric/tools/tree/main/worktree" xlink:show="new" xlink:title="https://github.com/titpetric/tools/tree/main/worktree" xlink:type="simple"><rect fill="#F1F1F1" height="68.1358" rx="2.5" ry="2.5" style="stroke:#181818;stroke-width:0.5;" width="238.6312" x="1590.5" y="557"/><rect fill="#F1F1F1" height="10" style="stroke:#181818;stroke-width:0.5;" width="15" x="1809.1312" y="562"/><rect fill="#F1F1F1" height="2" style="stroke:#181818;stroke-width:0.5;" width="4" x="1807.1312" y="564"/><rect fill="#F1F1F1" height="2" style="stroke:#181818;stroke-width:0.5;" width="4" x="1807.1312" y="568"/><text fill="#000000" font-family="sans-serif" font-size="14" font-weight="bold" lengthAdjust="spacing" textLength="64.6657" x="1605.5" y="591.9659">worktree</text><text fill="#000000" font-family="sans-serif" font-size="14" lengthAdjust="spacing" textLength="198.6312" x="1605.5" y="611.0339">Show Git / Go Workspace Tree</text></a></g><!--entity github_com_go_bridget_mig--><g class="entity" data-qualified-name="go-bridget.github_com_go_bridget_mig" data-source-line="40" id="ent0029"><a href="https://github.com/go-bridget/mig" target="_top" title="https://github.com/go-bridget/mig" xlink:actuate="onRequest" xlink:href="https://github.com/go-bridget/mig" xlink:show="new" xlink:title="https://github.com/go-bridget/mig" xlink:type="simple"><rect fill="#F1F1F1" height="68.1358" rx="2.5" ry="2.5" style="stroke:#181818;stroke-width:0.5;" width="374.6407" x="891.5" y="45"/><rect fill="#F1F1F1" height="10" style="stroke:#181818;stroke-width:0.5;" width="15" x="1246.1407" y="50"/><rect fill="#F1F1F1" height="2" style="stroke:#181818;stroke-width:0.5;" width="4" x="1244.1407" y="52"/><rect fill="#F1F1F1" height="2" style="stroke:#181818;stroke-width:0.5;" width="4" x="1244.1407" y="56"/><text fill="#000000" font-family="sans-serif" font-size="14" font-weight="bold" lengthAdjust="spacing" textLength="26.8799" x="906.5" y="79.9659">mig</text><text fill="#000000" font-family="sans-serif" font-size="14" lengthAdjust="spacing" textLength="334.6407" x="906.5" y="99.0339">SQL statement migration and development tooling</text></a></g><g class="entity" data-qualified-name="GMN30" data-source-line="44" id="ent0031"><path d="M759.5,65 L759.5,75 L725.12,79 L759.5,83 L759.5,92.706 A0,0 0 0 0 759.5,92.706 L856.4461,92.706 A0,0 0 0 0 856.4461,92.706 L856.4461,75 L846.4461,65 L759.5,65 A0,0 0 0 0 759.5,65" fill="#FEFFDD" style="stroke:#181818;stroke-width:0.5;"/><path d="M846.4461,65 L846.4461,75 L856.4461,75 L846.4461,65" fill="#FEFFDD" style="stroke:#181818;stroke-width:0.5;"/><text fill="#000000" font-family="sans-serif" font-size="13" lengthAdjust="spacing" textLength="75.9461" x="765.5" y="83.897">Used by mig</text></g><g class="entity" data-qualified-name="GMN33" data-source-line="45" id="ent0034"><path d="M1302,65 L1302,75 L1266.64,79 L1302,83 L1302,92.706 A0,0 0 0 0 1302,92.706 L1478.3501,92.706 A0,0 0 0 0 1478.3501,92.706 L1478.3501,75 L1468.3501,65 L1302,65 A0,0 0 0 0 1302,65" fill="#FEFFDD" style="stroke:#181818;stroke-width:0.5;"/><path d="M1468.3501,65 L1468.3501,75 L1478.3501,75 L1468.3501,65" fill="#FEFFDD" style="stroke:#181818;stroke-width:0.5;"/><text fill="#000000" font-family="sans-serif" font-size="13" lengthAdjust="spacing" textLength="155.3501" x="1308" y="83.897">Used by etl, platform-app</text></g><!--link github_com_titpetric_cli to github_com_titpetric_lessgo--><g class="link" data-entity-1="ent0003" data-entity-2="ent0004" data-link-type="dependency" data-source-line="18" id="lnk11"><path d="M431,113.3 C431,131.67 431,148.22 431,166.6" fill="none" id="github_com_titpetric_cli-to-github_com_titpetric_lessgo" style="stroke:#666666;stroke-width:1;"/><polygon fill="#666666" points="431,172.6,435,163.6,431,167.6,427,163.6,431,172.6" style="stroke:#666666;stroke-width:1;"/></g><!--link github_com_titpetric_lessgo to github_com_titpetric_platform--><g class="link" data-entity-1="ent0004" data-entity-2="ent0005" data-link-type="dependency" data-source-line="19" id="lnk12"><path d="M339.25,241.3 C339.25,259.67 339.25,276.22 339.25,294.6" fill="none" id="github_com_titpetric_lessgo-to-github_com_titpetric_platform" style="stroke:#666666;stroke-width:1;"/><polygon fill="#666666" points="339.25,300.6,343.25,291.6,339.25,295.6,335.25,291.6,339.25,300.6" style="stroke:#666666;stroke-width:1;"/></g><!--link github_com_titpetric_platform to github_com_titpetric_vuego--><g class="link" data-entity-1="ent0005" data-entity-2="ent0006" data-link-type="dependency" data-source-line="20" id="lnk13"><path d="M306.5,369.3 C306.5,387.67 306.5,404.22 306.5,422.6" fill="none" id="github_com_titpetric_platform-to-github_com_titpetric_vuego" style="stroke:#666666;stroke-width:1;"/><polygon fill="#666666" points="306.5,428.6,310.5,419.6,306.5,423.6,302.5,419.6,306.5,428.6" style="stroke:#666666;stroke-width:1;"/></g><!--link github_com_titpetric_vuego to github_com_titpetric_vuego_cli--><g class="link" data-entity-1="ent0006" data-entity-2="ent0007" data-link-type="dependency" data-source-line="21" id="lnk14"><path d="M381.83,497.3 C381.83,515.67 381.83,532.22 381.83,550.6" fill="none" id="github_com_titpetric_vuego-to-github_com_titpetric_vuego_cli" style="stroke:#666666;stroke-width:1;"/><polygon fill="#666666" points="381.83,556.6,385.83,547.6,381.83,551.6,377.83,547.6,381.83,556.6" style="stroke:#666666;stroke-width:1;"/></g><!--reverse link github_com_titpetric_vuego_cli to github_com_titpetric_vuego--><g class="link" data-entity-1="ent0007" data-entity-2="ent0006" data-link-type="dependency" data-source-line="51" id="lnk40"><path d="M433.17,550.7 C433.17,532.33 433.17,515.78 433.17,497.4" fill="none" id="github_com_titpetric_vuego_cli-backto-github_com_titpetric_vuego" style="stroke:#666666;stroke-width:1;"/><polygon fill="#666666" points="433.17,556.7,437.17,547.7,433.17,551.7,429.17,547.7,433.17,556.7" style="stroke:#666666;stroke-width:1;"/></g><!--link github_com_titpetric_vuego_cli to github_com_titpetric_atkins--><g class="link" data-entity-1="ent0007" data-entity-2="ent0008" data-link-type="dependency" data-source-line="22" id="lnk15"><path d="M463,625.3 C463,643.67 463,660.22 463,678.6" fill="none" id="github_com_titpetric_vuego_cli-to-github_com_titpetric_atkins" style="stroke:#666666;stroke-width:1;"/><polygon fill="#666666" points="463,684.6,467,675.6,463,679.6,459,675.6,463,684.6" style="stroke:#666666;stroke-width:1;"/></g><!--link github_com_titpetric_atkins to github_com_titpetric_etl--><g class="link" data-entity-1="ent0008" data-entity-2="ent0009" data-link-type="dependency" data-source-line="23" id="lnk16"><path d="M356.25,753.3 C356.25,771.67 356.25,788.22 356.25,806.6" fill="none" id="github_com_titpetric_atkins-to-github_com_titpetric_etl" style="stroke:#666666;stroke-width:1;"/><polygon fill="#666666" points="356.25,812.6,360.25,803.6,356.25,807.6,352.25,803.6,356.25,812.6" style="stroke:#666666;stroke-width:1;"/></g><!--link github_com_titpetric_etl to github_com_titpetric_platform_app--><g class="link" data-entity-1="ent0009" data-entity-2="ent0010" data-link-type="dependency" data-source-line="24" id="lnk17"><path d="M385.75,881.3 C385.75,899.67 385.75,916.22 385.75,934.6" fill="none" id="github_com_titpetric_etl-to-github_com_titpetric_platform_app" style="stroke:#666666;stroke-width:1;"/><polygon fill="#666666" points="385.75,940.6,389.75,931.6,385.75,935.6,381.75,931.6,385.75,940.6" style="stroke:#666666;stroke-width:1;"/></g><!--link github_com_titpetric_tools_generic to github_com_titpetric_tools_gofsck--><g class="link" data-entity-1="ent0019" data-entity-2="ent0020" data-link-type="dependency" data-source-line="33" id="lnk24"><path d="M1710,113.3 C1710,131.67 1710,148.22 1710,166.6" fill="none" id="github_com_titpetric_tools_generic-to-github_com_titpetric_tools_gofsck" style="stroke:#666666;stroke-width:1;"/><polygon fill="#666666" points="1710,172.6,1714,163.6,1710,167.6,1706,163.6,1710,172.6" style="stroke:#666666;stroke-width:1;"/></g><!--link github_com_titpetric_tools_gofsck to github_com_titpetric_tools_puzzle--><g class="link" data-entity-1="ent0020" data-entity-2="ent0021" data-link-type="dependency" data-source-line="34" id="lnk25"><path d="M1710,241.3 C1710,259.67 1710,276.22 1710,294.6" fill="none" id="github_com_titpetric_tools_gofsck-to-github_com_titpetric_tools_puzzle" style="stroke:#666666;stroke-width:1;"/><polygon fill="#666666" points="1710,300.6,1714,291.6,1710,295.6,1706,291.6,1710,300.6" style="stroke:#666666;stroke-width:1;"/></g><!--link github_com_titpetric_tools_puzzle to github_com_titpetric_tools_semver--><g class="link" data-entity-1="ent0021" data-entity-2="ent0022" data-link-type="dependency" data-source-line="35" id="lnk26"><path d="M1710,369.3 C1710,387.67 1710,404.22 1710,422.6" fill="none" id="github_com_titpetric_tools_puzzle-to-github_com_titpetric_tools_semver" style="stroke:#666666;stroke-width:1;"/><polygon fill="#666666" points="1710,428.6,1714,419.6,1710,423.6,1706,419.6,1710,428.6" style="stroke:#666666;stroke-width:1;"/></g><!--link github_com_titpetric_tools_semver to github_com_titpetric_tools_worktree--><g class="link" data-entity-1="ent0022" data-entity-2="ent0023" data-link-type="dependency" data-source-line="36" id="lnk27"><path d="M1710,497.3 C1710,515.67 1710,532.22 1710,550.6" fill="none" id="github_com_titpetric_tools_semver-to-github_com_titpetric_tools_worktree" style="stroke:#666666;stroke-width:1;"/><polygon fill="#666666" points="1710,556.6,1714,547.6,1710,551.6,1706,547.6,1710,556.6" style="stroke:#666666;stroke-width:1;"/></g><!--reverse link github_com_titpetric_vuego to github_com_titpetric_lessgo--><g class="link" data-entity-1="ent0006" data-entity-2="ent0004" data-link-type="dependency" data-source-line="47" id="lnk36"><path d="M457.25,422.74 C457.25,373.69 457.25,289.99 457.25,241.06" fill="none" id="github_com_titpetric_vuego-backto-github_com_titpetric_lessgo" style="stroke:#666666;stroke-width:1;"/><polygon fill="#666666" points="457.25,428.74,461.25,419.74,457.25,423.74,453.25,419.74,457.25,428.74" style="stroke:#666666;stroke-width:1;"/></g><!--reverse link github_com_titpetric_vuego_cli to github_com_titpetric_cli--><g class="link" data-entity-1="ent0007" data-entity-2="ent0003" data-link-type="dependency" data-source-line="48" id="lnk37"><path d="M567.75,550.61 C567.75,457.34 567.75,206.34 567.75,113.24" fill="none" id="github_com_titpetric_vuego_cli-backto-github_com_titpetric_cli" style="stroke:#666666;stroke-width:1;"/><polygon fill="#666666" points="567.75,556.61,571.75,547.61,567.75,551.61,563.75,547.61,567.75,556.61" style="stroke:#666666;stroke-width:1;"/></g><!--reverse link github_com_titpetric_vuego_cli to github_com_titpetric_lessgo--><g class="link" data-entity-1="ent0007" data-entity-2="ent0004" data-link-type="dependency" data-source-line="49" id="lnk38"><path d="M540,550.67 C540,458.58 540,219 540,219 C540,219 509.47,219 473.21,219" fill="none" id="github_com_titpetric_vuego_cli-backto-github_com_titpetric_lessgo" style="stroke:#666666;stroke-width:1;"/><polygon fill="#666666" points="540,556.67,544,547.67,540,551.67,536,547.67,540,556.67" style="stroke:#666666;stroke-width:1;"/></g><!--reverse link github_com_titpetric_vuego_cli to github_com_titpetric_platform--><g class="link" data-entity-1="ent0007" data-entity-2="ent0005" data-link-type="dependency" data-source-line="50" id="lnk39"><path d="M512.25,550.74 C512.25,480.98 512.25,335 512.25,335 C512.25,335 481.34,335 441.57,335" fill="none" id="github_com_titpetric_vuego_cli-backto-github_com_titpetric_platform" style="stroke:#666666;stroke-width:1;"/><polygon fill="#666666" points="512.25,556.74,516.25,547.74,512.25,551.74,508.25,547.74,512.25,556.74" style="stroke:#666666;stroke-width:1;"/></g><!--reverse link github_com_titpetric_atkins to github_com_titpetric_cli--><g class="link" data-entity-1="ent0008" data-entity-2="ent0003" data-link-type="dependency" data-source-line="52" id="lnk41"><path d="M641.5,678.59 C641.5,567.34 641.5,224.13 641.5,113.19" fill="none" id="github_com_titpetric_atkins-backto-github_com_titpetric_cli" style="stroke:#666666;stroke-width:1;"/><polygon fill="#666666" points="641.5,684.59,645.5,675.59,641.5,679.59,637.5,675.59,641.5,684.59" style="stroke:#666666;stroke-width:1;"/></g><!--reverse link github_com_titpetric_etl to github_com_titpetric_lessgo--><g class="link" data-entity-1="ent0009" data-entity-2="ent0004" data-link-type="dependency" data-source-line="53" id="lnk42"><path d="M78.25,806.59 C78.25,673.66 78.25,207 78.25,207 C78.25,207 161.61,207 236.83,207" fill="none" id="github_com_titpetric_etl-backto-github_com_titpetric_lessgo" style="stroke:#666666;stroke-width:1;"/><polygon fill="#666666" points="78.25,812.59,82.25,803.59,78.25,807.59,74.25,803.59,78.25,812.59" style="stroke:#666666;stroke-width:1;"/></g><!--reverse link github_com_titpetric_etl to github_com_titpetric_platform--><g class="link" data-entity-1="ent0009" data-entity-2="ent0005" data-link-type="dependency" data-source-line="54" id="lnk43"><path d="M121.5,806.61 C121.5,713.34 121.5,462.34 121.5,369.24" fill="none" id="github_com_titpetric_etl-backto-github_com_titpetric_platform" style="stroke:#666666;stroke-width:1;"/><polygon fill="#666666" points="121.5,812.61,125.5,803.61,121.5,807.61,117.5,803.61,121.5,812.61" style="stroke:#666666;stroke-width:1;"/></g><!--reverse link github_com_titpetric_etl to github_com_titpetric_vuego--><g class="link" data-entity-1="ent0009" data-entity-2="ent0006" data-link-type="dependency" data-source-line="55" id="lnk44"><path d="M208.5,806.92 C208.5,734.05 208.5,569.8 208.5,497" fill="none" id="github_com_titpetric_etl-backto-github_com_titpetric_vuego" style="stroke:#666666;stroke-width:1;"/><polygon fill="#666666" points="208.5,812.92,212.5,803.92,208.5,807.92,204.5,803.92,208.5,812.92" style="stroke:#666666;stroke-width:1;"/></g><!--reverse link github_com_titpetric_platform_app to github_com_titpetric_cli--><g class="link" data-entity-1="ent0010" data-entity-2="ent0003" data-link-type="dependency" data-source-line="56" id="lnk45"><path d="M632.74,992 C680.4,992 715.62,992 715.62,992 C715.62,992 715.62,278.87 715.62,113.12" fill="none" id="github_com_titpetric_platform_app-backto-github_com_titpetric_cli" style="stroke:#666666;stroke-width:1;"/><polygon fill="#666666" points="626.74,992,635.74,996,631.74,992,635.74,988,626.74,992" style="stroke:#666666;stroke-width:1;"/></g><!--reverse link github_com_titpetric_platform_app to github_com_titpetric_lessgo--><g class="link" data-entity-1="ent0010" data-entity-2="ent0004" data-link-type="dependency" data-source-line="57" id="lnk46"><path d="M632.64,975 C675.92,975 706.25,975 706.25,975 C706.25,975 706.25,196 706.25,196 C706.25,196 575.4,196 473.43,196" fill="none" id="github_com_titpetric_platform_app-backto-github_com_titpetric_lessgo" style="stroke:#666666;stroke-width:1;"/><polygon fill="#666666" points="626.64,975,635.64,979,631.64,975,635.64,971,626.64,975" style="stroke:#666666;stroke-width:1;"/></g><!--reverse link github_com_titpetric_platform_app to github_com_titpetric_platform--><g class="link" data-entity-1="ent0010" data-entity-2="ent0005" data-link-type="dependency" data-source-line="58" id="lnk47"><path d="M495.5,934.77 C495.5,882.05 495.5,793 495.5,793 C495.5,793 146.5,793 146.5,793 C146.5,793 146.5,475.19 146.5,369.05" fill="none" id="github_com_titpetric_platform_app-backto-github_com_titpetric_platform" style="stroke:#666666;stroke-width:1;"/><polygon fill="#666666" points="495.5,940.77,499.5,931.77,495.5,935.77,491.5,931.77,495.5,940.77" style="stroke:#666666;stroke-width:1;"/></g><!--reverse link github_com_titpetric_platform_app to github_com_titpetric_vuego--><g class="link" data-entity-1="ent0010" data-entity-2="ent0006" data-link-type="dependency" data-source-line="59" id="lnk48"><path d="M561,934.73 C561,877.1 561,773 561,773 C561,773 245.5,773 245.5,773 C245.5,773 245.5,577.59 245.5,497.06" fill="none" id="github_com_titpetric_platform_app-backto-github_com_titpetric_vuego" style="stroke:#666666;stroke-width:1;"/><polygon fill="#666666" points="561,940.73,565,931.73,561,935.73,557,931.73,561,940.73" style="stroke:#666666;stroke-width:1;"/></g><!--reverse link github_com_titpetric_platform_app to github_com_titpetric_vuego_cli--><g class="link" data-entity-1="ent0010" data-entity-2="ent0007" data-link-type="dependency" data-source-line="60" id="lnk49"><path d="M632.58,958 C671.36,958 696.88,958 696.88,958 C696.88,958 696.88,591 696.88,591 C696.88,591 648.44,591 595.65,591" fill="none" id="github_com_titpetric_platform_app-backto-github_com_titpetric_vuego_cli" style="stroke:#666666;stroke-width:1;"/><polygon fill="#666666" points="626.58,958,635.58,962,631.58,958,635.58,954,626.58,958" style="stroke:#666666;stroke-width:1;"/></g><?plantuml-src fLR1Rjiu4BthAmPPeAUwkksX2084RXjaaSCMpcuFtSAWfR5CX285SfJKNUo_xv2KP2SL9JlDoQ7cFJuEtyoGJ0DaO6E8J0sbj5YGD3fpIA15ZQuH1Qwm4LQGiQ2DnimzIEqNQb1I8-qR16DfPuu-CEf1LBYYlKBmd49NwXXPcBfXBatmRmPmRQrvMXh5E_psU_ZB_ikoZWGkI5A3P6Ln4Q8Fs8lBpLMXv6M-kVf7NqCjjQo5WkNThG-gXIvx9T0wgIjejafK5o0SL99sxMRDOUk1VirSyFNhZgXnx_CyXhpZa7m8oJdasxUVH2XqhZAzZXjEg71OmXqlmtAr2j5IeKrl7HdcTezH8m8Q9MXhR3samfIj4XRStX7Mm9zWqqfL-YImFD4qIXR2NxLBQ-f9vrJrSIEw_cvn92-y-iUAjMaItu7rUG84r1NxAItdqNFDQGb18qB2-c8mYxU8Jmhj42BlUJ9EiSgmvOWSGLmAhazC8nlqjGIsrHejF34TSB4evOBAvMs-_03UpYK-eZ9DpJnfXP5yJbwC6j7syVuk2bjzlbjyajQHhwYtSFtdBRo1BxY13mSLy8dB6P-CVKZhGL9pOZXamjKBzckNAmtuNV1D8GpkF38pa4MSD_IQ8QUQskyTf2Kxnc9nDLNJAMXNyKbqBo257ywVP0W6JC6ZwwUn_dYJ-EdpHuUb23gN9j5iYHJK6sesR_wInyT8JiOeDpPCAkJoaqNqsZrFjX9QaahI7hQj3gFHXJeSkeL5NJA4swelr1kJDb_OTDtjCEU-49nxD-Ura3hlO2CrKfcjAnxwJkA8ww1WYKBjdNJWUJfbmoXqPDk2MekpMWFrsL83QgoQsny_5FPA2skSuxx18pgiGpXYU6LiBRz5ZWI7XyYSs8xbJB4HDIBMOVs8TaXh-0z8y3LBHVpJvvHtuFjlZ9EiMivBx5ZEb1XH8n9zq_LXNRFUcIUuOKMvJzqN_XRURd0_sH6Zi9xfN6azBjqVdvi-MRF7VfkXYfwSOOhNEitK6MQ6AMP_cgcxrnccFbdFUX8_43PMbXNIM3kgPJLCub3Q64OkBziuxbuy2KAvSozwUT_SgBjTremTl-M3afnZ-4PPPgQDRt6osX6ORNe2leU__BDki_VIqg0NCWuexkTluNZWPjd4pBfSB2RdxSouIiBzi7ijzXUt7cRzQmdYg9-Qi-SVsq_PLnru4ZXzr4den26VlUpEF-ffyAapdyOmVVZJE7uv2uUdtVy0?></g></svg>